<svg width="25" height="24" viewBox="0 0 25 24" fill="none" xmlns="http://www.w3.org/2000/svg">
<g clip-path="url(#clip0_67_129)">
<path d="M17.6414 7.18726V8.32726H16.4939V9.47476H15.3539V10.6148H14.2139V12.9023H15.3539V14.0423H16.4939V15.1898H17.6414V16.3298H18.7814V12.9023H23.3564V10.6148H18.7814V7.18726H17.6414Z" fill="#000001"/>
<path d="M17.6414 18.6172H16.4939V20.9047H17.6414V18.6172Z" fill="#000001"/>
<path d="M17.6414 1.47217H16.4939V4.89967H17.6414V1.47217Z" fill="#000001"/>
<path d="M11.9264 23.1849V22.0449H16.4939V20.9049H11.9264V6.04736H10.7864V23.1849H11.9264Z" fill="#000001"/>
<path d="M10.7863 23.1848H7.35132V24.3323H10.7863V23.1848Z" fill="#000001"/>
<path d="M9.63878 12.9023H8.49878V15.1898H9.63878V12.9023Z" fill="#000001"/>
<path d="M10.7863 4.89966H8.49878V6.04716H10.7863V4.89966Z" fill="#000001"/>
<path d="M7.35129 22.0447H5.07129V23.1847H7.35129V22.0447Z" fill="#000001"/>
<path d="M8.49868 3.75977H6.21118V4.89977H8.49868V3.75977Z" fill="#000001"/>
<path d="M5.07119 20.9048H2.78369V22.0448H5.07119V20.9048Z" fill="#000001"/>
<path d="M6.21133 2.61987H3.92383V3.75987H6.21133V2.61987Z" fill="#000001"/>
<path d="M2.7838 0.332275V1.47228H1.6438V20.9048H2.7838V2.61978H3.9238V1.47228H16.4938V0.332275H2.7838Z" fill="#000001"/>
</g>
<defs>
<clipPath id="clip0_67_129">
<rect width="24" height="24" fill="white" transform="translate(0.5)"/>
</clipPath>
</defs>
</svg>
