<svg width="32" height="32" viewBox="0 0 32 32" fill="none" xmlns="http://www.w3.org/2000/svg">
<path d="M28.95 12.1899H27.43V19.8099H28.95V12.1899Z" fill="#000001"/>
<path d="M27.43 19.8101H25.91V22.8601H27.43V19.8101Z" fill="#000001"/>
<path d="M27.43 9.14014H25.91V12.1901H27.43V9.14014Z" fill="#000001"/>
<path d="M27.43 7.62007V6.10007H28.95V4.57007H21.33V12.1901H22.86V10.6701H24.38V9.14007H25.91V7.62007H27.43Z" fill="#000001"/>
<path d="M25.91 22.8601H24.38V24.3801H25.91V22.8601Z" fill="#000001"/>
<path d="M24.38 24.3801H22.86V25.9101H24.38V24.3801Z" fill="#000001"/>
<path d="M22.86 25.9102H19.81V27.4302H22.86V25.9102Z" fill="#000001"/>
<path d="M19.81 27.4299H13.71V28.9499H19.81V27.4299Z" fill="#000001"/>
<path d="M18.29 3.05005H12.19V4.57005H18.29V3.05005Z" fill="#000001"/>
<path d="M12.19 4.57007H9.13998V6.10007H12.19V4.57007Z" fill="#000001"/>
<path d="M9.14 6.1001H7.62V7.6201H9.14V6.1001Z" fill="#000001"/>
<path d="M7.61998 7.62012H6.09998V9.14012H7.61998V7.62012Z" fill="#000001"/>
<path d="M4.56999 24.3801V25.9101H3.04999V27.4301H10.67V19.8101H9.13999V21.3301H7.61999V22.8601H6.09999V24.3801H4.56999Z" fill="#000001"/>
<path d="M6.09998 19.8101H4.56998V22.8601H6.09998V19.8101Z" fill="#000001"/>
<path d="M6.09998 9.14014H4.56998V12.1901H6.09998V9.14014Z" fill="#000001"/>
<path d="M4.56999 12.1899H3.04999V19.8099H4.56999V12.1899Z" fill="#000001"/>
</svg>
