<svg width="28" height="28" viewBox="0 0 28 28" fill="none" xmlns="http://www.w3.org/2000/svg">
<path d="M27.9999 16.6644H26.6611V21.9931H27.9999V16.6644Z" fill="#202020"/>
<path d="M26.6613 21.9931H25.3313V23.3319H26.6613V21.9931Z" fill="#202020"/>
<path d="M24.0012 13.9956V15.3344H25.3312V16.6644H26.6612V11.3269H25.3312V13.9956H24.0012Z" fill="#202020"/>
<path d="M25.3312 23.3319H24.0012V24.6619H25.3312V23.3319Z" fill="#202020"/>
<path d="M25.3312 7.32812H24.0012V11.3269H25.3312V7.32812Z" fill="#202020"/>
<path d="M24.0012 15.3344H18.6637V16.6644H22.6625V17.9944H21.3325V19.3331H19.9937V20.6631H18.6637V16.6644H17.3337V21.9931H18.6637V23.3319H24.0012V21.9931H25.3312V16.6644H24.0012V15.3344Z" fill="#202020"/>
<path d="M24.0013 3.32938H22.6626V7.32813H24.0013V3.32938Z" fill="#202020"/>
<path d="M24.0013 24.6619H18.6638V26.0006H24.0013V24.6619Z" fill="#202020"/>
<path d="M24.0013 12.6656H18.6638V13.9956H24.0013V12.6656Z" fill="#202020"/>
<path d="M18.6637 23.3319H17.3337V24.6619H18.6637V23.3319Z" fill="#202020"/>
<path d="M18.6637 13.9956H17.3337V15.3344H18.6637V13.9956Z" fill="#202020"/>
<path d="M22.6626 1.99937H15.9951V3.32937H22.6626V1.99937Z" fill="#202020"/>
<path d="M17.3339 21.9931H15.9951V23.3319H17.3339V21.9931Z" fill="#202020"/>
<path d="M15.995 16.6644H17.3338V15.3344H14.665V21.9931H15.995V16.6644Z" fill="#202020"/>
<path d="M17.3338 9.99687H15.995V8.66687H11.9963V9.99687H10.6663V11.3269H11.9963V12.6656H15.995V11.3269H17.3338V9.99687Z" fill="#202020"/>
<path d="M14.665 13.9956H13.335V15.3344H14.665V13.9956Z" fill="#202020"/>
<path d="M11.9963 7.32813H15.9951V3.32938H14.6651V5.99813H13.3351V3.32938H11.9963V7.32813Z" fill="#202020"/>
<path d="M11.9963 21.9931H10.6663V23.3319H11.9963V21.9931Z" fill="#202020"/>
<path d="M10.6663 16.6644H11.9963V21.9931H13.335V15.3344H10.6663V16.6644Z" fill="#202020"/>
<path d="M10.6661 23.3319H9.32739V24.6619H10.6661V23.3319Z" fill="#202020"/>
<path d="M10.6661 13.9956H9.32739V15.3344H10.6661V13.9956Z" fill="#202020"/>
<path d="M9.32745 15.3344H3.9987V16.6644H7.99745V17.9944H6.66745V19.3331H5.3287V20.6631H3.9987V16.6644H2.6687V21.9931H3.9987V23.3319H9.32745V21.9931H10.6662V16.6644H9.32745V15.3344Z" fill="#202020"/>
<path d="M9.32753 24.6619H3.99878V26.0006H9.32753V24.6619Z" fill="#202020"/>
<path d="M11.9964 1.99937H5.32886V3.32937H11.9964V1.99937Z" fill="#202020"/>
<path d="M9.32753 12.6656H3.99878V13.9956H9.32753V12.6656Z" fill="#202020"/>
<path d="M5.32878 3.32938H3.99878V7.32813H5.32878V3.32938Z" fill="#202020"/>
<path d="M3.9987 23.3319H2.6687V24.6619H3.9987V23.3319Z" fill="#202020"/>
<path d="M3.9987 7.32812H2.6687V11.3269H3.9987V7.32812Z" fill="#202020"/>
<path d="M2.66883 21.9931H1.33008V23.3319H2.66883V21.9931Z" fill="#202020"/>
<path d="M2.66883 15.3344H3.99883V13.9956H2.66883V11.3269H1.33008V16.6644H2.66883V15.3344Z" fill="#202020"/>
<path d="M1.33 16.6644H0V21.9931H1.33V16.6644Z" fill="#202020"/>
</svg>
