<svg width="28" height="28" viewBox="0 0 28 28" fill="none" xmlns="http://www.w3.org/2000/svg">
<g clip-path="url(#clip0_49_43)">
<path d="M27.9999 2.66875H26.6611V6.6675H27.9999V2.66875Z" fill="#202020"/>
<path d="M26.6613 6.6675H25.3313V7.9975H26.6613V6.6675Z" fill="#202020"/>
<path d="M26.6613 1.33H25.3313V2.66875H26.6613V1.33Z" fill="#202020"/>
<path d="M25.3312 11.9963H24.0012V18.6638H25.3312V11.9963Z" fill="#202020"/>
<path d="M25.3312 5.3375H24.0012V6.6675H25.3312V5.3375Z" fill="#202020"/>
<path d="M24.0013 26.67H22.6626V28H24.0013V26.67Z" fill="#202020"/>
<path d="M24.0013 18.6637H22.6626V21.3325H24.0013V18.6637Z" fill="#202020"/>
<path d="M24.0013 9.33625H22.6626V11.9963H24.0013V9.33625Z" fill="#202020"/>
<path d="M24.0013 3.99875H22.6626V5.3375H24.0013V3.99875Z" fill="#202020"/>
<path d="M25.3313 0H21.3325V1.33H25.3313V0Z" fill="#202020"/>
<path d="M22.6625 25.3313H21.3325V26.67H22.6625V25.3313Z" fill="#202020"/>
<path d="M22.6625 21.3325H21.3325V22.6625H22.6625V21.3325Z" fill="#202020"/>
<path d="M22.6625 14.665H21.3325V16.0038H22.6625V14.665Z" fill="#202020"/>
<path d="M22.6625 7.9975H21.3325V9.33625H22.6625V7.9975Z" fill="#202020"/>
<path d="M22.6625 2.66875H21.3325V3.99875H22.6625V2.66875Z" fill="#202020"/>
<path d="M19.9937 24.0012H17.3337V25.3312H21.3325V22.6625H19.9937V24.0012Z" fill="#202020"/>
<path d="M21.3324 6.6675H19.9937V7.9975H21.3324V6.6675Z" fill="#202020"/>
<path d="M21.3324 1.33H19.9937V2.66875H21.3324V1.33Z" fill="#202020"/>
<path d="M19.9938 20.0025H18.6638V21.3325H19.9938V20.0025Z" fill="#202020"/>
<path d="M19.9938 9.33625H18.6638V10.6662H19.9938V9.33625Z" fill="#202020"/>
<path d="M18.6638 14.665H15.9951V13.335H14.6651V9.33625H13.3351V13.335H11.9963V17.3337H15.9951V16.0038H18.6638V14.665Z" fill="#202020"/>
<path d="M19.9937 5.3375H17.3337V6.6675H19.9937V5.3375Z" fill="#202020"/>
<path d="M17.3338 25.3313H10.6663V26.67H17.3338V25.3313Z" fill="#202020"/>
<path d="M14.665 22.6625H13.335V24.0012H14.665V22.6625Z" fill="#202020"/>
<path d="M14.665 6.6675H13.335V7.9975H14.665V6.6675Z" fill="#202020"/>
<path d="M17.3338 3.99875H10.6663V5.3375H17.3338V3.99875Z" fill="#202020"/>
<path d="M7.99748 24.0012V22.6625H6.66748V25.3312H10.6662V24.0012H7.99748Z" fill="#202020"/>
<path d="M10.6663 5.3375H7.99756V6.6675H10.6663V5.3375Z" fill="#202020"/>
<path d="M9.32756 20.0025H7.99756V21.3325H9.32756V20.0025Z" fill="#202020"/>
<path d="M9.32756 9.33625H7.99756V10.6662H9.32756V9.33625Z" fill="#202020"/>
<path d="M7.99748 6.6675H6.66748V7.9975H7.99748V6.6675Z" fill="#202020"/>
<path d="M7.99748 1.33H6.66748V2.66875H7.99748V1.33Z" fill="#202020"/>
<path d="M6.66761 25.3313H5.32886V26.67H6.66761V25.3313Z" fill="#202020"/>
<path d="M6.66761 21.3325H5.32886V22.6625H6.66761V21.3325Z" fill="#202020"/>
<path d="M6.66761 14.665H5.32886V16.0038H6.66761V14.665Z" fill="#202020"/>
<path d="M6.66761 7.9975H5.32886V9.33625H6.66761V7.9975Z" fill="#202020"/>
<path d="M6.66761 2.66875H5.32886V3.99875H6.66761V2.66875Z" fill="#202020"/>
<path d="M5.32878 26.67H3.99878V28H5.32878V26.67Z" fill="#202020"/>
<path d="M5.32878 18.6637H3.99878V21.3325H5.32878V18.6637Z" fill="#202020"/>
<path d="M5.32878 9.33625H3.99878V11.9963H5.32878V9.33625Z" fill="#202020"/>
<path d="M5.32878 3.99875H3.99878V5.3375H5.32878V3.99875Z" fill="#202020"/>
<path d="M6.66745 0H2.6687V1.33H6.66745V0Z" fill="#202020"/>
<path d="M3.9987 11.9963H2.6687V18.6638H3.9987V11.9963Z" fill="#202020"/>
<path d="M3.9987 5.3375H2.6687V6.6675H3.9987V5.3375Z" fill="#202020"/>
<path d="M2.66883 6.6675H1.33008V7.9975H2.66883V6.6675Z" fill="#202020"/>
<path d="M2.66883 1.33H1.33008V2.66875H2.66883V1.33Z" fill="#202020"/>
<path d="M1.33 2.66875H0V6.6675H1.33V2.66875Z" fill="#202020"/>
</g>
<defs>
<clipPath id="clip0_49_43">
<rect width="28" height="28" fill="white"/>
</clipPath>
</defs>
</svg>
