<svg width="48" height="48" viewBox="0 0 48 48" fill="none" xmlns="http://www.w3.org/2000/svg">
<g clip-path="url(#clip0_13_1006)">
<path d="M45.72 13.71H43.425V9.135H41.145V6.855H38.85V4.575H34.29V2.28H29.715V0H18.285V2.28H13.71V4.575H9.135V6.855H6.855V9.135H4.575V13.71H2.28V18.285H0V29.715H2.28V34.29H4.575V38.85H6.855V41.145H9.135V43.425H13.71V45.72H18.285V48H29.715V45.72H34.29V43.425H38.85V41.145H41.145V38.85H43.425V34.29H45.72V29.715H48V18.285H45.72V13.71ZM29.715 38.85H27.435V41.145H20.565V38.85H18.285V31.995H20.565V29.715H27.435V31.995H29.715V38.85ZM36.57 18.285H34.29V20.565H31.995V22.86H29.715V25.14H27.435V27.435H20.565V22.86H22.86V20.565H25.14V18.285H27.435V13.71H25.14V11.43H20.565V13.71H18.285V18.285H11.43V11.43H13.71V9.135H16.005V6.855H18.285V4.575H29.715V6.855H31.995V9.135H34.29V11.43H36.57V18.285Z" fill="white"/>
</g>
<defs>
<clipPath id="clip0_13_1006">
<rect width="48" height="48" fill="white"/>
</clipPath>
</defs>
</svg>
