<svg width="24" height="24" viewBox="0 0 24 24" fill="none" xmlns="http://www.w3.org/2000/svg">
<g clip-path="url(#clip0_4_586)">
<path d="M24 2.28748H22.8525V5.71498H24V2.28748Z" fill="#202020"/>
<path d="M22.8524 5.71503H21.7124V6.85503H22.8524V5.71503Z" fill="#202020"/>
<path d="M22.8524 1.14001H21.7124V2.28751H22.8524V1.14001Z" fill="#202020"/>
<path d="M21.7125 10.2825H20.5725V15.9975H21.7125V10.2825Z" fill="#202020"/>
<path d="M21.7125 4.57501H20.5725V5.71501H21.7125V4.57501Z" fill="#202020"/>
<path d="M20.5725 22.86H19.425V24H20.5725V22.86Z" fill="#202020"/>
<path d="M20.5725 15.9975H19.425V18.285H20.5725V15.9975Z" fill="#202020"/>
<path d="M20.5725 8.0025H19.425V10.2825H20.5725V8.0025Z" fill="#202020"/>
<path d="M20.5725 3.42749H19.425V4.57499H20.5725V3.42749Z" fill="#202020"/>
<path d="M21.7124 0H18.2849V1.14H21.7124V0Z" fill="#202020"/>
<path d="M19.4249 21.7125H18.2849V22.86H19.4249V21.7125Z" fill="#202020"/>
<path d="M19.4249 18.285H18.2849V19.425H19.4249V18.285Z" fill="#202020"/>
<path d="M19.4249 12.57H18.2849V13.7175H19.4249V12.57Z" fill="#202020"/>
<path d="M19.4249 6.85498H18.2849V8.00248H19.4249V6.85498Z" fill="#202020"/>
<path d="M19.4249 2.28748H18.2849V3.42748H19.4249V2.28748Z" fill="#202020"/>
<path d="M17.1374 20.5725H14.8574V21.7125H18.2849V19.425H17.1374V20.5725Z" fill="#202020"/>
<path d="M18.285 5.71503H17.1375V6.85503H18.285V5.71503Z" fill="#202020"/>
<path d="M18.285 1.14001H17.1375V2.28751H18.285V1.14001Z" fill="#202020"/>
<path d="M17.1376 17.145H15.9976V18.285H17.1376V17.145Z" fill="#202020"/>
<path d="M17.1376 8.0025H15.9976V9.1425H17.1376V8.0025Z" fill="#202020"/>
<path d="M15.9975 12.57H13.71V11.43H12.57V8.0025H11.43V11.43H10.2825V14.8575H13.71V13.7175H15.9975V12.57Z" fill="#202020"/>
<path d="M17.1374 4.57501H14.8574V5.71501H17.1374V4.57501Z" fill="#202020"/>
<path d="M14.8576 21.7125H9.14258V22.86H14.8576V21.7125Z" fill="#202020"/>
<path d="M12.5699 19.425H11.4299V20.5725H12.5699V19.425Z" fill="#202020"/>
<path d="M12.5699 5.71503H11.4299V6.85503H12.5699V5.71503Z" fill="#202020"/>
<path d="M14.8576 3.42749H9.14258V4.57499H14.8576V3.42749Z" fill="#202020"/>
<path d="M6.85509 20.5725V19.425H5.71509V21.7125H9.14259V20.5725H6.85509Z" fill="#202020"/>
<path d="M9.14248 4.57501H6.85498V5.71501H9.14248V4.57501Z" fill="#202020"/>
<path d="M7.99498 17.145H6.85498V18.285H7.99498V17.145Z" fill="#202020"/>
<path d="M7.99498 8.0025H6.85498V9.1425H7.99498V8.0025Z" fill="#202020"/>
<path d="M6.85509 5.71503H5.71509V6.85503H6.85509V5.71503Z" fill="#202020"/>
<path d="M6.85509 1.14001H5.71509V2.28751H6.85509V1.14001Z" fill="#202020"/>
<path d="M5.71488 21.7125H4.56738V22.86H5.71488V21.7125Z" fill="#202020"/>
<path d="M5.71488 18.285H4.56738V19.425H5.71488V18.285Z" fill="#202020"/>
<path d="M5.71488 12.57H4.56738V13.7175H5.71488V12.57Z" fill="#202020"/>
<path d="M5.71488 6.85498H4.56738V8.00248H5.71488V6.85498Z" fill="#202020"/>
<path d="M5.71488 2.28748H4.56738V3.42748H5.71488V2.28748Z" fill="#202020"/>
<path d="M4.56749 22.86H3.42749V24H4.56749V22.86Z" fill="#202020"/>
<path d="M4.56749 15.9975H3.42749V18.285H4.56749V15.9975Z" fill="#202020"/>
<path d="M4.56749 8.0025H3.42749V10.2825H4.56749V8.0025Z" fill="#202020"/>
<path d="M4.56749 3.42749H3.42749V4.57499H4.56749V3.42749Z" fill="#202020"/>
<path d="M5.7151 0H2.2876V1.14H5.7151V0Z" fill="#202020"/>
<path d="M3.4276 10.2825H2.2876V15.9975H3.4276V10.2825Z" fill="#202020"/>
<path d="M3.4276 4.57501H2.2876V5.71501H3.4276V4.57501Z" fill="#202020"/>
<path d="M2.28739 5.71503H1.13989V6.85503H2.28739V5.71503Z" fill="#202020"/>
<path d="M2.28739 1.14001H1.13989V2.28751H2.28739V1.14001Z" fill="#202020"/>
<path d="M1.14 2.28748H0V5.71498H1.14V2.28748Z" fill="#202020"/>
</g>
<defs>
<clipPath id="clip0_4_586">
<rect width="24" height="24" fill="white"/>
</clipPath>
</defs>
</svg>
