<svg width="24" height="24" viewBox="0 0 24 24" fill="none" xmlns="http://www.w3.org/2000/svg">
<path d="M24 14.2838H22.8525V18.8513H24V14.2838Z" fill="#202020"/>
<path d="M22.8524 18.8513H21.7124V19.9988H22.8524V18.8513Z" fill="#202020"/>
<path d="M20.5725 11.9962V13.1437H21.7125V14.2837H22.8525V9.70874H21.7125V11.9962H20.5725Z" fill="#202020"/>
<path d="M21.7125 19.9987H20.5725V21.1387H21.7125V19.9987Z" fill="#202020"/>
<path d="M21.7125 6.28125H20.5725V9.70875H21.7125V6.28125Z" fill="#202020"/>
<path d="M20.5724 13.1437H15.9974V14.2837H19.4249V15.4237H18.2849V16.5712H17.1374V17.7112H15.9974V14.2837H14.8574V18.8512H15.9974V19.9987H20.5724V18.8512H21.7124V14.2837H20.5724V13.1437Z" fill="#202020"/>
<path d="M20.5725 2.85376H19.425V6.28126H20.5725V2.85376Z" fill="#202020"/>
<path d="M20.5726 21.1387H15.9976V22.2862H20.5726V21.1387Z" fill="#202020"/>
<path d="M20.5726 10.8563H15.9976V11.9963H20.5726V10.8563Z" fill="#202020"/>
<path d="M15.9974 19.9987H14.8574V21.1387H15.9974V19.9987Z" fill="#202020"/>
<path d="M15.9974 11.9962H14.8574V13.1437H15.9974V11.9962Z" fill="#202020"/>
<path d="M19.425 1.71375H13.71V2.85375H19.425V1.71375Z" fill="#202020"/>
<path d="M14.8575 18.8513H13.71V19.9988H14.8575V18.8513Z" fill="#202020"/>
<path d="M13.7101 14.2837H14.8576V13.1437H12.5701V18.8512H13.7101V14.2837Z" fill="#202020"/>
<path d="M14.8576 8.56877H13.7101V7.42877H10.2826V8.56877H9.14258V9.70877H10.2826V10.8563H13.7101V9.70877H14.8576V8.56877Z" fill="#202020"/>
<path d="M12.5699 11.9962H11.4299V13.1437H12.5699V11.9962Z" fill="#202020"/>
<path d="M10.2825 6.28126H13.71V2.85376H12.57V5.14126H11.43V2.85376H10.2825V6.28126Z" fill="#202020"/>
<path d="M10.2826 18.8513H9.14258V19.9988H10.2826V18.8513Z" fill="#202020"/>
<path d="M9.14258 14.2837H10.2826V18.8512H11.4301V13.1437H9.14258V14.2837Z" fill="#202020"/>
<path d="M9.14262 19.9987H7.99512V21.1387H9.14262V19.9987Z" fill="#202020"/>
<path d="M9.14262 11.9962H7.99512V13.1437H9.14262V11.9962Z" fill="#202020"/>
<path d="M7.9951 13.1437H3.4276V14.2837H6.8551V15.4237H5.7151V16.5712H4.5676V17.7112H3.4276V14.2837H2.2876V18.8512H3.4276V19.9987H7.9951V18.8512H9.1426V14.2837H7.9951V13.1437Z" fill="#202020"/>
<path d="M7.99499 21.1387H3.42749V22.2862H7.99499V21.1387Z" fill="#202020"/>
<path d="M10.2824 1.71375H4.56738V2.85375H10.2824V1.71375Z" fill="#202020"/>
<path d="M7.99499 10.8563H3.42749V11.9963H7.99499V10.8563Z" fill="#202020"/>
<path d="M4.56749 2.85376H3.42749V6.28126H4.56749V2.85376Z" fill="#202020"/>
<path d="M3.4276 19.9987H2.2876V21.1387H3.4276V19.9987Z" fill="#202020"/>
<path d="M3.4276 6.28125H2.2876V9.70875H3.4276V6.28125Z" fill="#202020"/>
<path d="M2.28739 18.8513H1.13989V19.9988H2.28739V18.8513Z" fill="#202020"/>
<path d="M2.28739 13.1437H3.42739V11.9962H2.28739V9.70874H1.13989V14.2837H2.28739V13.1437Z" fill="#202020"/>
<path d="M1.14 14.2838H0V18.8513H1.14V14.2838Z" fill="#202020"/>
</svg>
