<svg width="24" height="24" viewBox="0 0 24 24" fill="none" xmlns="http://www.w3.org/2000/svg">
<path d="M21.7125 9.14258H20.5725V14.8576H21.7125V9.14258Z" fill="#000001"/>
<path d="M20.5726 14.8577H19.4326V17.1452H20.5726V14.8577Z" fill="#000001"/>
<path d="M20.5726 6.85498H19.4326V9.14248H20.5726V6.85498Z" fill="#000001"/>
<path d="M20.5726 5.71499V4.57499H21.7126V3.42749H15.9976V9.14249H17.1451V8.00249H18.2851V6.85499H19.4326V5.71499H20.5726Z" fill="#000001"/>
<path d="M19.4327 17.145H18.2852V18.285H19.4327V17.145Z" fill="#000001"/>
<path d="M18.285 18.2852H17.145V19.4327H18.285V18.2852Z" fill="#000001"/>
<path d="M17.1452 19.4326H14.8577V20.5726H17.1452V19.4326Z" fill="#000001"/>
<path d="M14.8577 20.5725H10.2827V21.7125H14.8577V20.5725Z" fill="#000001"/>
<path d="M13.7176 2.2876H9.14258V3.4276H13.7176V2.2876Z" fill="#000001"/>
<path d="M9.14248 3.42749H6.85498V4.57499H9.14248V3.42749Z" fill="#000001"/>
<path d="M6.85509 4.5752H5.71509V5.7152H6.85509V4.5752Z" fill="#000001"/>
<path d="M5.7152 5.71509H4.5752V6.85509H5.7152V5.71509Z" fill="#000001"/>
<path d="M3.4276 18.2852V19.4327H2.2876V20.5727H8.0026V14.8577H6.8551V15.9977H5.7151V17.1452H4.5751V18.2852H3.4276Z" fill="#000001"/>
<path d="M4.57499 14.8577H3.42749V17.1452H4.57499V14.8577Z" fill="#000001"/>
<path d="M4.57499 6.85498H3.42749V9.14248H4.57499V6.85498Z" fill="#000001"/>
<path d="M3.4276 9.14258H2.2876V14.8576H3.4276V9.14258Z" fill="#000001"/>
</svg>
